<?xml version="1.0" encoding="UTF-8"?>
<svg width="15px" height="14px" viewBox="0 0 15 14" version="1.1" xmlns="http://www.w3.org/2000/svg" xmlns:xlink="http://www.w3.org/1999/xlink">
    <!-- Generator: Sketch 48.2 (47327) - http://www.bohemiancoding.com/sketch -->
    <title>Search</title>
    <desc>Created with Sketch.</desc>
    <defs></defs>
    <g id="iPhone-X" stroke="none" stroke-width="1" fill="none" fill-rule="evenodd" transform="translate(-24.000000, -421.000000)">
        <g id="Navigation-Bar---With-Search---Inactive" transform="translate(0.000000, 366.000000)" fill="#8E8E93">
            <g id="Search-Field-Type" transform="translate(0.000000, 44.000000)">
                <g id="Bars/Search-Bar/_/Search-Glyph" transform="translate(24.000000, 11.000000)">
                    <path d="M13.7822488,12.5740557 L9.93832854,8.73955572 C10.6273567,7.80245935 10.9964664,6.66953223 10.99132,5.50755572 C10.9781729,2.47441147 8.51791526,0.0175744397 5.4761519,5.57178262e-05 C4.02049667,-0.00651157295 2.62266679,0.567712287 1.59405921,1.59480646 C0.565451636,2.62190064 -0.0084890452,4.01654626 9.49198785e-05,5.46805572 C0.0132419802,8.50147611 2.47372415,10.958537 5.51576444,10.9760557 C6.68579859,10.9811124 7.8261044,10.6087552 8.76649948,9.91455572 L8.77051087,9.91155572 L12.6109211,13.7430557 C12.8185599,13.9602692 13.1279558,14.0481921 13.4192324,13.9727584 C13.710509,13.8973248 13.9378983,13.6703873 14.0132976,13.3798737 C14.0886969,13.0893602 14.0002587,12.7809186 13.7822488,12.5740557 L13.7822488,12.5740557 Z M5.51175304,9.87805572 C3.07825375,9.86409673 1.10990002,7.89865842 1.09921743,5.47205572 C1.09264936,4.31099854 1.55183968,3.19550612 2.37457081,2.37389147 C3.19730194,1.55227681 4.31528836,1.09273279 5.47966187,1.09755572 C7.91316116,1.1115147 9.88151489,3.07695301 9.89219748,5.50355572 C9.89876555,6.6646129 9.43957523,7.78010532 8.6168441,8.60171997 C7.79411297,9.42333462 6.67612655,9.88287864 5.51175304,9.87805572 Z" id="Search"></path>
                </g>
            </g>
        </g>
    </g>
</svg>