<svg id="Layer_1" data-name="Layer 1" xmlns="http://www.w3.org/2000/svg" width="64" height="64" viewBox="0 0 64 64"><defs><style>.cls-1{fill:#666;}</style></defs><title>clock_face</title><path class="cls-1" d="M30,33a1,1,0,0,0,.3.71l12,12A1,1,0,0,0,43,46a1,1,0,0,0,.71-0.29,1,1,0,0,0,0-1.41L32,32.59V17a1,1,0,0,0-2,0V33Z"/><path class="cls-1" d="M31,12a1,1,0,0,0,1-1V7a1,1,0,0,0-2,0v4A1,1,0,0,0,31,12Z"/><path class="cls-1" d="M30,59a1,1,0,0,0,2,0V55a1,1,0,0,0-2,0v4Z"/><path class="cls-1" d="M5,34H9a1,1,0,1,0,0-2H5A1,1,0,0,0,5,34Z"/><path class="cls-1" d="M52,33a1,1,0,0,0,1,1h4a1,1,0,0,0,0-2H53A1,1,0,0,0,52,33Z"/><path class="cls-1" d="M18.13,12.72a1,1,0,0,0,1.74-1l-1-1.73a1,1,0,0,0-1.74,1Z"/><path class="cls-1" d="M43.87,53.29a1,1,0,1,0-1.74,1l1,1.73a1,1,0,0,0,1.74-1Z"/><path class="cls-1" d="M9.72,44.13L8,45.13a1,1,0,0,0-.37,1.37,1,1,0,0,0,.86.5A1,1,0,0,0,9,46.87l1.73-1A1,1,0,0,0,9.72,44.13Z"/><path class="cls-1" d="M50.92,21.5a1,1,0,0,0,1.37.37l1.73-1a1,1,0,0,0-1-1.74l-1.73,1A1,1,0,0,0,50.92,21.5Z"/><path class="cls-1" d="M8,20.87l1.73,1a1,1,0,0,0,1-1.74L9,19.13A1,1,0,0,0,8,20.87Z"/><path class="cls-1" d="M53,46.87a1,1,0,0,0,1-1.74l-1.73-1a1,1,0,1,0-1,1.74Z"/><path class="cls-1" d="M17.5,56.38A1,1,0,0,0,18.87,56l1-1.73a1,1,0,0,0-1.74-1l-1,1.73A1,1,0,0,0,17.5,56.38Z"/><path class="cls-1" d="M44.5,9.62a1,1,0,0,0-1.37.37l-1,1.73a1,1,0,0,0,1.74,1l1-1.73A1,1,0,0,0,44.5,9.62Z"/></svg>